<?xml version="1.0" standalone="no"?>
<!DOCTYPE svg PUBLIC "-//W3C//DTD SVG 20010904//EN"
 "http://www.w3.org/TR/2001/REC-SVG-20010904/DTD/svg10.dtd">
<svg version="1.0" xmlns="http://www.w3.org/2000/svg"
 width="260.000000pt" height="260.000000pt" viewBox="0 0 260.000000 260.000000"
 preserveAspectRatio="xMidYMid meet">
<metadata>
Created by potrace 1.11, written by Peter Selinger 2001-2013
</metadata>
<g transform="translate(0.000000,260.000000) scale(0.100000,-0.100000)"
fill="#000000" stroke="none">
<path d="M1140 2579 c-114 -25 -134 -30 -140 -38 -3 -5 -28 -17 -55 -26 -28
-9 -62 -28 -76 -41 -14 -13 -28 -21 -32 -17 -4 3 -20 -8 -35 -25 -16 -18 -32
-32 -37 -32 -4 0 -32 -27 -63 -60 -101 -110 -130 -205 -126 -410 4 -181 11
-228 35 -235 26 -8 19 -29 -10 -33 -12 -2 -26 -14 -31 -26 -9 -24 0 -90 17
-120 8 -15 11 -12 16 24 7 54 18 66 45 49 l21 -13 -20 -22 c-26 -28 -22 -72 8
-91 21 -14 23 -13 35 13 7 16 17 32 22 35 5 4 6 15 2 25 -12 30 -7 204 8 278
9 45 10 80 5 100 -5 17 -9 45 -9 62 0 31 57 152 85 180 17 17 20 28 5 19 -19
-11 -10 6 25 52 28 37 42 46 71 49 20 2 43 9 50 15 11 9 18 9 26 1 13 -13 19
-54 6 -46 -4 3 -8 0 -8 -5 0 -11 13 -15 38 -12 6 1 12 -2 12 -8 0 -5 -6 -12
-12 -14 -9 -4 -8 -6 2 -6 9 -1 23 8 33 19 18 21 47 27 47 10 0 -5 5 -10 10
-10 6 0 10 9 10 20 0 13 5 18 15 14 9 -4 18 2 24 17 l10 24 2 -25 c1 -14 2
-34 3 -45 1 -11 6 -20 13 -20 6 0 15 -3 19 -7 13 -13 21 -9 28 15 5 18 8 19
15 8 8 -12 11 -9 16 11 7 28 45 70 45 50 0 -7 -4 -12 -10 -12 -5 0 -10 -7 -10
-16 0 -11 6 -8 23 10 16 17 27 22 38 16 10 -7 19 -3 32 13 l17 22 19 -22 c18
-22 38 -32 27 -15 -2 4 -1 14 5 22 5 8 9 10 9 4 0 -7 21 -12 53 -12 28 -1 68
-3 87 -7 19 -3 43 -5 53 -6 12 0 17 -5 13 -15 -3 -8 -1 -12 4 -9 5 3 25 -18
44 -47 19 -30 41 -60 51 -68 25 -21 45 -78 45 -131 0 -26 7 -80 15 -119 8 -40
13 -82 11 -94 -2 -12 0 -45 6 -72 5 -27 9 -77 10 -111 1 -66 16 -84 38 -44 14
28 12 55 -7 89 -17 29 -12 69 8 57 6 -4 14 -17 19 -29 7 -18 9 -17 15 16 8 43
0 62 -25 55 -25 -6 -28 10 -23 138 2 61 -1 126 -6 145 -5 19 -17 67 -25 107
-17 76 -63 184 -93 219 -10 12 -37 33 -60 48 -23 14 -50 34 -60 44 -31 32
-112 72 -147 72 -19 0 -39 6 -45 14 -6 8 -36 17 -66 21 -30 3 -57 10 -60 15
-6 10 -124 9 -175 -1z m596 -263 c19 -19 18 -32 -1 -16 -12 10 -15 10 -15 -4
0 -9 -8 -16 -17 -15 -12 0 -13 2 -5 6 10 4 10 8 1 19 -10 12 -9 13 6 8 13 -5
16 -4 11 4 -10 17 2 15 20 -2z m54 -71 c0 -5 -5 -3 -10 5 -5 8 -10 20 -10 25
0 6 5 3 10 -5 5 -8 10 -19 10 -25z m-572 0 c-6 -14 -13 -24 -14 -22 -6 6 9 47
17 47 5 0 3 -11 -3 -25z"/>
<path d="M1392 1753 c-20 -14 -38 -29 -40 -33 -2 -4 -11 -6 -21 -3 -32 8 -33
-15 -2 -33 18 -10 33 -30 36 -45 4 -15 12 -32 19 -38 22 -19 139 -43 179 -38
48 7 67 22 30 25 -34 3 -39 8 -24 26 11 13 72 33 120 38 26 3 42 28 18 28 -8
0 -20 7 -27 15 -7 8 -22 15 -33 15 -19 0 -19 1 -4 18 10 10 17 26 17 36 0 15
-12 17 -115 15 -105 -1 -119 -3 -153 -26z"/>
<path d="M1125 1748 c-22 -5 -49 -7 -59 -4 -10 3 -53 -6 -94 -20 -41 -13 -80
-24 -88 -24 -8 0 -12 -10 -10 -27 2 -15 -3 -34 -11 -41 -8 -8 -12 -19 -10 -25
5 -15 86 -39 110 -33 9 2 15 0 11 -5 -3 -5 0 -9 7 -9 9 0 9 -3 0 -14 -26 -31
159 -31 220 0 16 8 30 28 39 56 7 24 22 51 33 61 16 14 17 20 6 33 -10 12 -68
44 -89 48 -3 1 -9 4 -15 7 -5 3 -28 2 -50 -3z"/>
<path d="M719 1458 c4 -28 6 -29 9 -9 2 13 0 27 -5 32 -6 6 -7 -3 -4 -23z"/>
<path d="M734 1377 c1 -36 -4 -52 -17 -62 -20 -14 -8 -29 16 -19 17 6 33 -18
53 -81 7 -22 13 -31 13 -20 1 11 -11 58 -25 105 -38 126 -41 132 -40 77z"/>
<path d="M1480 1381 c0 -16 -2 -35 -5 -43 -3 -7 12 -33 34 -58 22 -25 37 -49
34 -54 -3 -4 1 -12 8 -17 11 -7 10 -9 -5 -9 -10 0 -24 -7 -31 -17 -13 -18 -68
-25 -102 -12 -25 9 -31 34 -10 42 7 3 19 24 27 47 12 36 12 43 -1 51 -21 13
-191 16 -246 4 -32 -7 -33 -7 -39 34 -4 22 -9 41 -11 41 -15 0 -43 -23 -43
-35 0 -8 -7 -15 -16 -15 -8 0 -13 -4 -10 -9 10 -15 -6 -43 -20 -37 -8 3 -14 1
-14 -4 0 -6 -3 -9 -7 -8 -11 4 -62 -42 -75 -66 -7 -13 -7 -16 1 -12 5 4 15 -3
21 -14 6 -11 26 -36 46 -55 19 -19 30 -35 24 -35 -5 0 -10 -8 -10 -17 0 -14 8
-18 33 -18 24 0 32 5 31 18 -1 12 2 14 14 8 9 -5 36 -3 66 5 63 17 110 18 100
3 -4 -7 0 -9 12 -6 52 14 125 27 175 30 67 4 123 38 114 67 -4 13 0 20 15 25
11 3 20 11 20 16 0 5 6 9 13 7 12 -3 17 3 17 22 0 16 -61 80 -76 80 -8 0 -14
5 -14 11 0 12 -20 31 -52 50 -16 8 -18 6 -18 -20z m-282 -133 c33 -41 42 -82
19 -91 -25 -10 -102 0 -99 12 2 9 -4 10 -19 6 -19 -6 -21 -4 -15 18 9 39 49
96 66 96 8 0 30 -18 48 -41z"/>
<path d="M864 1038 c8 -21 26 -53 39 -70 14 -18 28 -43 31 -54 4 -12 31 -43
61 -70 30 -26 55 -54 55 -61 0 -7 4 -13 9 -13 5 0 14 -13 19 -29 6 -16 20 -34
31 -41 15 -7 21 -21 21 -43 0 -18 6 -41 14 -52 7 -11 13 -34 13 -50 0 -50 12
-83 33 -90 11 -4 18 -11 15 -16 -3 -5 9 -18 27 -29 41 -25 142 -25 144 0 1 8
2 21 3 29 0 7 7 11 15 8 23 -9 39 18 21 33 -8 7 -15 19 -15 26 0 8 -7 14 -17
14 -15 0 -15 1 0 18 9 10 14 27 11 39 -5 16 4 28 41 54 26 18 52 47 59 64 7
17 41 60 76 96 34 37 72 82 84 102 11 19 34 56 50 82 16 25 25 49 22 53 -4 3
-11 0 -16 -8 -7 -11 -10 -8 -10 13 0 15 -5 27 -11 27 -5 0 -8 -4 -5 -9 3 -5
-1 -11 -9 -15 -17 -6 -21 -36 -5 -36 15 0 -2 -29 -35 -60 -14 -14 -33 -33 -43
-42 -9 -10 -23 -18 -30 -18 -8 0 -23 -11 -34 -25 -17 -22 -84 -44 -110 -37 -4
1 -24 4 -44 6 -20 3 -39 7 -42 10 -3 3 -11 1 -17 -4 -16 -13 -101 -14 -142 -1
-18 5 -33 8 -33 6 0 -3 -13 8 -29 23 -16 15 -41 37 -55 49 -15 12 -26 25 -26
28 1 4 -10 20 -24 38 -14 17 -26 34 -26 37 0 4 -14 6 -30 5 -26 -2 -30 1 -25
19 6 20 5 20 -8 4 -18 -23 -25 -23 -48 5 l-20 22 15 -37z"/>
<path d="M1270 1045 c0 -9 -12 -21 -26 -27 -20 -10 -27 -9 -34 2 -5 8 -12 11
-16 7 -9 -9 42 -57 61 -57 8 0 16 -4 19 -8 10 -17 136 9 136 28 0 15 -49 66
-50 51 0 -11 -3 -11 -16 0 -13 10 -17 10 -24 -1 -7 -11 -11 -10 -25 3 -20 21
-25 21 -25 2z"/>
<path d="M1627 1033 c-12 -11 -8 -23 8 -23 8 0 15 7 15 15 0 16 -12 20 -23 8z"/>
<path d="M995 1020 c-3 -5 -1 -10 4 -10 6 0 11 5 11 10 0 6 -2 10 -4 10 -3 0
-8 -4 -11 -10z"/>
<path d="M1710 878 c0 -88 -4 -116 -32 -201 -26 -77 -42 -109 -72 -141 -41
-44 -86 -128 -86 -162 0 -32 -51 -104 -114 -161 -32 -29 -61 -53 -65 -53 -42
0 -147 97 -180 164 -17 36 -50 138 -57 174 -1 8 -6 17 -10 20 -4 4 -4 -1 -1
-11 4 -10 -13 3 -38 30 -25 26 -43 53 -41 60 3 8 -1 10 -11 6 -10 -4 -14 -2
-9 5 3 6 2 13 -4 17 -26 16 -98 180 -114 258 l-11 58 -19 -32 c-10 -17 -14
-29 -7 -25 19 12 12 -8 -13 -35 -35 -38 -57 -84 -45 -98 6 -8 6 -8 -3 -1 -17
14 -51 12 -74 -5 -10 -8 -28 -15 -40 -15 -11 0 -31 -10 -45 -22 -13 -12 -37
-33 -53 -47 -16 -14 -26 -20 -21 -12 6 10 1 12 -21 7 -16 -3 -46 -8 -67 -12
-21 -3 -106 -38 -190 -78 -142 -68 -208 -97 -249 -110 -10 -3 -18 -10 -18 -17
0 -6 7 -9 15 -5 8 3 15 1 15 -4 0 -6 -7 -10 -15 -10 -13 0 -15 -30 -15 -210
l0 -210 215 0 c165 0 215 3 215 13 0 8 4 7 10 -3 8 -13 10 -13 10 -1 0 12 3
12 12 3 18 -18 26 -15 31 10 l4 23 2 -22 c1 -23 2 -23 155 -23 114 0 156 3
159 13 4 9 8 8 16 -3 10 -13 12 -13 21 0 6 10 10 11 10 3 0 -14 177 -15 186
-1 3 5 10 6 15 3 5 -4 9 1 9 9 0 9 5 16 10 16 6 0 10 -9 10 -20 0 -19 7 -20
185 -20 l185 0 0 26 c0 25 1 26 50 19 34 -5 50 -3 50 4 0 6 4 11 9 11 5 0 7
-10 5 -22 -2 -13 -2 -17 2 -10 8 18 32 15 37 -5 4 -17 5 -17 6 0 2 25 31 21
32 -5 1 -14 3 -17 5 -8 5 18 52 39 72 32 6 -2 12 -12 12 -23 0 -21 16 -24 40
-9 10 6 11 10 3 10 -7 0 -13 5 -13 10 0 6 7 10 15 10 8 0 15 5 15 11 0 6 9 8
23 3 30 -9 33 -12 19 -26 -7 -7 -12 -15 -12 -19 0 -4 54 -7 120 -7 l120 0 1
27 1 26 13 -30 c11 -24 14 -26 15 -10 1 18 1 19 11 3 6 -12 22 -18 45 -18 32
0 34 2 28 26 -6 24 -5 25 14 15 13 -7 19 -17 16 -26 -5 -13 21 -15 190 -15
l196 0 0 50 c0 48 -13 62 -32 36 -10 -15 -21 41 -15 80 3 20 2 32 -3 29 -5 -3
-19 -1 -29 5 -16 8 -19 15 -12 33 5 13 7 35 4 49 -4 22 -1 25 21 25 21 0 24
-2 15 -13 -6 -8 -16 -11 -22 -7 -6 4 -8 1 -5 -8 3 -8 9 -23 13 -34 6 -17 5
-17 -5 -5 -9 13 -11 12 -8 -5 3 -15 10 -19 30 -17 15 1 30 -3 34 -9 4 -8 3 -9
-4 -5 -9 5 -12 -7 -11 -41 1 -42 2 -44 9 -18 l7 30 5 -30 c3 -16 6 20 6 81 0
61 -4 118 -9 125 -5 8 -9 10 -10 4 -1 -12 -17 25 -18 42 -1 7 8 9 22 6 l22 -5
-21 15 c-11 9 -33 19 -47 22 -15 4 -27 12 -27 18 0 6 -3 7 -7 4 -3 -4 -21 2
-39 14 -18 11 -42 22 -54 24 -11 2 -27 11 -36 20 -9 8 -20 13 -25 10 -5 -4 -9
-2 -9 4 0 10 -68 37 -83 33 -4 -1 -15 5 -24 13 -8 9 -22 14 -30 11 -8 -3 -11
-2 -8 4 5 8 -21 29 -35 28 -13 -2 -50 14 -50 22 0 10 -89 46 -157 64 -37 10
-52 10 -59 2 -5 -6 -8 -9 -7 -7 1 2 -4 16 -11 30 -8 14 -24 50 -37 80 -13 29
-34 60 -47 69 -13 8 -21 21 -18 28 2 6 -2 20 -9 31 -14 17 -14 17 -15 -2 -1
-18 -2 -18 -11 3 -5 13 -7 28 -3 33 3 5 -2 9 -10 9 -14 0 -16 -16 -16 -102z
m107 -75 c1 -32 -1 -34 -8 -15 -7 18 -3 52 5 52 1 0 2 -17 3 -37z m-997 -23
c0 -16 -2 -30 -4 -30 -2 0 -6 14 -8 30 -3 17 -1 30 4 30 4 0 8 -13 8 -30z
m952 -12 c-7 -7 -12 -8 -12 -2 0 14 12 26 19 19 2 -3 -1 -11 -7 -17z m-905
-30 c-3 -8 -6 -5 -6 6 -1 11 2 17 5 13 3 -3 4 -12 1 -19z m950 -20 c-3 -8 -6
-5 -6 6 -1 11 2 17 5 13 3 -3 4 -12 1 -19z m-1000 -30 c-3 -7 -5 -2 -5 12 0
14 2 19 5 13 2 -7 2 -19 0 -25z m1028 22 c3 -5 1 -10 -4 -10 -6 0 -11 5 -11
10 0 6 2 10 4 10 3 0 8 -4 11 -10z m-958 -262 c-3 -8 -6 -5 -6 6 -1 11 2 17 5
13 3 -3 4 -12 1 -19z m890 0 c-3 -8 -6 -5 -6 6 -1 11 2 17 5 13 3 -3 4 -12 1
-19z m-1712 2 c-3 -5 -12 -10 -18 -10 -7 0 -6 4 3 10 19 12 23 12 15 0z m2454
-18 c38 -17 40 -20 26 -38 -11 -13 -13 -14 -9 -3 3 11 -5 21 -30 33 -20 9 -36
19 -36 21 0 8 5 6 49 -13z m-1644 -12 c3 -5 1 -10 -4 -10 -6 0 -11 5 -11 10 0
6 2 10 4 10 3 0 8 -4 11 -10z m925 0 c0 -5 -5 -10 -11 -10 -5 0 -7 5 -4 10 3
6 8 10 11 10 2 0 4 -4 4 -10z m617 -122 c-3 -7 -5 -2 -5 12 0 14 2 19 5 13 2
-7 2 -19 0 -25z m171 -33 c0 -29 0 -29 -8 -5 -4 14 -8 36 -8 50 -1 23 0 23 8
5 5 -11 8 -33 8 -50z m-180 -21 c1 22 4 37 7 34 9 -8 11 -128 3 -128 -12 0
-50 69 -43 80 3 5 1 10 -4 10 -6 0 -11 5 -11 11 0 6 7 9 15 5 10 -4 15 1 17
17 0 12 4 2 8 -23 l7 -45 1 39z m-118 -5 c0 -5 -6 -8 -12 -6 -7 1 -12 -6 -12
-15 2 -21 -12 -24 -19 -5 -8 24 4 45 24 40 10 -3 19 -9 19 -14z m-143 -56 c-2
-16 -4 -5 -4 22 0 28 2 40 4 28 2 -13 2 -35 0 -50z m354 -102 c6 10 9 6 9 -13
0 -16 5 -28 10 -28 7 0 6 -5 -1 -13 -10 -10 -17 -8 -36 11 -23 23 -32 49 -13
37 6 -3 10 0 11 7 0 10 2 10 6 -1 5 -11 7 -11 14 0z m-2024 -53 c-3 -7 -5 -2
-5 12 0 14 2 19 5 13 2 -7 2 -19 0 -25z m953 2 c0 -5 -4 -10 -10 -10 -5 0 -10
5 -10 10 0 6 5 10 10 10 6 0 10 -4 10 -10z"/>
<path d="M1545 10 c-4 -6 3 -10 14 -10 25 0 27 6 6 13 -8 4 -17 2 -20 -3z"/>
</g>
</svg>
